# Blender 5.1.2
# www.blender.org
mtllib sink.mtl
o Cube
v 0.135000 0.050000 -0.140000
v 0.135000 -0.020000 -0.140000
v 0.135000 0.050000 0.140000
v -0.135000 0.050000 -0.140000
v -0.135000 0.050000 0.140000
v -0.135000 -0.020000 0.140000
v 0.117213 -0.005885 -0.125000
v 0.117213 -0.013672 -0.117213
v 0.125000 -0.005885 -0.117213
v 0.125000 -0.005885 0.117213
v 0.117213 -0.013672 0.117213
v 0.117213 -0.005885 0.125000
v -0.117213 -0.013672 -0.117213
v -0.117213 -0.005885 -0.125000
v -0.125000 -0.005885 -0.117213
v -0.117213 -0.013672 0.117213
v -0.125000 -0.005885 0.117213
v -0.117213 -0.005885 0.125000
v -0.117213 0.042213 0.125000
v -0.125000 0.042213 0.117213
v -0.128294 0.050000 0.134284
v 0.117213 0.042213 -0.125000
v 0.125000 0.042213 -0.117213
v 0.128294 0.050000 -0.134284
v -0.125000 0.042213 -0.117213
v -0.117213 0.042213 -0.125000
v -0.128115 0.050000 -0.134344
v 0.117213 0.042213 0.125000
v 0.128115 0.050000 0.134344
v 0.125000 0.042213 0.117213
v 0.135000 -0.020000 0.140000
v -0.135000 -0.020000 -0.140000
v 0.020000 -0.020000 0.140000
v 0.000000 -0.020000 0.140000
v -0.020000 0.050000 0.140000
v 0.000000 0.050000 0.140000
v -0.020000 -0.020000 0.140000
v 0.020000 0.050000 -0.140000
v -0.020000 -0.020000 -0.140000
v 0.000000 -0.020000 -0.140000
v 0.000000 0.050000 -0.140000
v -0.020000 0.050000 -0.140000
v 0.020000 -0.020000 -0.140000
v -0.020000 0.050000 0.170000
v 0.000000 0.050000 0.170000
v 0.020000 -0.020000 0.170000
v 0.000000 -0.020000 0.170000
v -0.020000 -0.020000 0.170000
v 0.020000 0.050000 0.170000
v 0.020000 0.050000 -0.170000
v 0.000000 0.050000 -0.170000
v -0.020000 -0.020000 -0.170000
v 0.000000 -0.020000 -0.170000
v -0.020000 0.050000 -0.170000
v 0.020000 -0.020000 -0.170000
v 0.020000 -0.020000 -0.170000
v -0.020000 0.050000 -0.170000
v 0.000000 -0.020000 -0.170000
v -0.020000 -0.020000 -0.170000
v 0.000000 0.050000 -0.170000
v 0.020000 0.050000 -0.170000
v 0.020000 0.050000 0.170000
v -0.020000 -0.020000 0.170000
v 0.000000 -0.020000 0.170000
v 0.020000 -0.020000 0.170000
v 0.000000 0.050000 0.170000
v -0.020000 0.050000 0.170000
v 0.000000 0.035000 0.170000
v 0.000000 0.040000 0.170000
v 0.000000 0.030000 0.170000
v 0.000000 0.035000 -0.170000
v 0.020000 0.040000 -0.170000
v -0.020000 0.040000 -0.170000
v 0.000000 0.040000 -0.170000
v 0.020000 0.030000 -0.170000
v -0.020000 0.030000 -0.170000
v 0.000000 0.030000 -0.170000
v 0.010000 -0.020000 -0.170000
v 0.010000 0.050000 -0.170000
v 0.010000 0.035000 -0.170000
v 0.010000 0.040000 -0.170000
v 0.010000 0.030000 -0.170000
v -0.010000 0.050000 -0.170000
v -0.010000 -0.020000 -0.170000
v -0.010000 0.035000 -0.170000
v -0.010000 0.040000 -0.170000
v -0.010000 0.030000 -0.170000
v 0.010000 0.050000 0.170000
v 0.010000 -0.020000 0.170000
v -0.010000 -0.020000 0.170000
v -0.010000 0.050000 0.170000
v 0.020000 0.050000 0.140000
v 0.020000 0.040000 0.170000
v -0.010000 0.040000 0.170000
v -0.020000 0.030000 0.170000
v 0.010000 0.030000 0.170000
v 0.010000 0.040000 0.170000
v -0.020000 0.040000 0.170000
v -0.010000 0.035000 0.170000
v 0.020000 0.030000 0.170000
v -0.010000 0.030000 0.170000
v 0.010000 0.035000 0.170000
v 0.020000 0.040000 0.140000
v 0.020000 0.035000 0.140000
v -0.020000 0.040000 0.140000
v -0.020000 0.035000 0.140000
v -0.010000 0.035000 0.140000
v -0.010000 0.040000 0.140000
v 0.020000 0.030000 0.140000
v -0.020000 0.030000 0.140000
v -0.010000 0.030000 0.140000
v 0.010000 0.035000 0.140000
v 0.010000 0.040000 0.140000
v 0.010000 0.030000 0.140000
v 0.020000 0.040000 -0.140000
v 0.020000 0.035000 -0.140000
v -0.020000 0.040000 -0.140000
v -0.020000 0.035000 -0.140000
v 0.010000 0.035000 -0.140000
v 0.010000 0.040000 -0.140000
v 0.020000 0.030000 -0.140000
v -0.020000 0.030000 -0.140000
v 0.010000 0.030000 -0.140000
v -0.010000 0.035000 -0.140000
v -0.010000 0.040000 -0.140000
v -0.010000 0.030000 -0.140000
vn -1.0000 -0.0000 -0.0000
vn -0.0000 -0.0000 1.0000
vn -0.0000 1.0000 -0.0000
vn -0.0000 -1.0000 -0.0000
vn 1.0000 -0.0000 -0.0000
vn -0.0000 -0.0000 -1.0000
vn -0.3363 0.8796 0.3363
vn 0.3379 0.8785 0.3379
vn -0.0001 0.7672 0.6414
vn -0.5773 0.5774 0.5774
vn -0.7071 -0.0000 0.7071
vn -0.3379 0.8785 -0.3379
vn -0.9248 0.3806 -0.0003
vn -0.5773 0.5774 -0.5774
vn -0.7071 -0.0000 -0.7071
vn 0.3363 0.8796 -0.3363
vn 0.0001 0.7672 -0.6414
vn 0.5773 0.5774 -0.5774
vn 0.7071 -0.0000 -0.7071
vn 0.9248 0.3806 0.0003
vn 0.5773 0.5774 0.5774
vn 0.7071 -0.0000 0.7071
vn 0.7071 0.7071 -0.0000
vn -0.0000 0.7071 0.7071
vn -0.7071 0.7071 -0.0000
vn -0.0000 0.7071 -0.7071
vt 0.000000 0.000000
s 0
usemtl Material
f 5/1/1 4/1/1 32/1/1 6/1/1
f 37/1/2 35/1/2 5/1/2 6/1/2
f 45/1/3 36/1/3 35/1/3 44/1/3
f 45/1/3 49/1/3 92/1/3 36/1/3
f 37/1/4 34/1/4 47/1/4 48/1/4
f 47/1/4 34/1/4 33/1/4 46/1/4
f 31/1/2 3/1/2 92/1/2 33/1/2
f 31/1/5 2/1/5 1/1/5 3/1/5
f 43/1/6 38/1/6 1/1/6 2/1/6
f 24/1/7 22/1/7 23/1/7
f 26/1/8 27/1/8 25/1/8
f 26/1/9 22/1/9 24/1/9 27/1/9
f 26/1/2 14/1/2 7/1/2 22/1/2
f 9/1/10 7/1/10 8/1/10
f 9/1/11 23/1/11 22/1/11 7/1/11
f 9/1/1 10/1/1 30/1/1 23/1/1
f 29/1/12 30/1/12 28/1/12
f 29/1/13 24/1/13 23/1/13 30/1/13
f 12/1/14 10/1/14 11/1/14
f 12/1/15 28/1/15 30/1/15 10/1/15
f 12/1/6 18/1/6 19/1/6 28/1/6
f 21/1/16 19/1/16 20/1/16
f 21/1/17 29/1/17 28/1/17 19/1/17
f 17/1/18 18/1/18 16/1/18
f 17/1/19 20/1/19 19/1/19 18/1/19
f 17/1/5 15/1/5 25/1/5 20/1/5
f 20/1/20 25/1/20 27/1/20 21/1/20
f 14/1/21 15/1/21 13/1/21
f 14/1/22 26/1/22 25/1/22 15/1/22
f 15/1/23 17/1/23 16/1/23 13/1/23
f 16/1/3 11/1/3 8/1/3 13/1/3
f 13/1/24 8/1/24 7/1/24 14/1/24
f 8/1/25 11/1/25 10/1/25 9/1/25
f 11/1/26 16/1/26 18/1/26 12/1/26
f 32/1/6 4/1/6 42/1/6 39/1/6
f 40/1/4 43/1/4 33/1/4 34/1/4
f 33/1/4 43/1/4 2/1/4 31/1/4
f 34/1/4 37/1/4 39/1/4 40/1/4
f 37/1/4 6/1/4 32/1/4 39/1/4
f 43/1/4 40/1/4 53/1/4 55/1/4
f 39/1/4 52/1/4 53/1/4 40/1/4
f 42/1/3 41/1/3 51/1/3 54/1/3
f 50/1/3 51/1/3 41/1/3 38/1/3
f 1/1/3 24/1/3 29/1/3 3/1/3
f 75/1/6 56/1/6 78/1/6 82/1/6
f 78/1/6 58/1/6 77/1/6 82/1/6
f 82/1/6 77/1/6 71/1/6 80/1/6
f 77/1/6 87/1/6 85/1/6 71/1/6
f 71/1/6 85/1/6 86/1/6 74/1/6
f 125/1/6 124/1/6 118/1/6 117/1/6
f 124/1/6 126/1/6 122/1/6 118/1/6
f 84/1/6 59/1/6 76/1/6 87/1/6
f 84/1/6 87/1/6 77/1/6 58/1/6
f 73/1/6 57/1/6 83/1/6 86/1/6
f 86/1/6 83/1/6 60/1/6 74/1/6
f 74/1/6 60/1/6 79/1/6 81/1/6
f 72/1/6 81/1/6 79/1/6 61/1/6
f 80/1/6 71/1/6 74/1/6 81/1/6
f 123/1/6 119/1/6 116/1/6 121/1/6
f 116/1/6 119/1/6 120/1/6 115/1/6
f 65/1/2 100/1/2 96/1/2 89/1/2
f 114/1/2 109/1/2 104/1/2 112/1/2
f 112/1/2 104/1/2 103/1/2 113/1/2
f 93/1/2 62/1/2 88/1/2 97/1/2
f 97/1/2 88/1/2 66/1/2 69/1/2
f 69/1/2 66/1/2 91/1/2 94/1/2
f 98/1/2 94/1/2 91/1/2 67/1/2
f 105/1/2 106/1/2 107/1/2 108/1/2
f 106/1/2 110/1/2 111/1/2 107/1/2
f 101/1/2 70/1/2 68/1/2 99/1/2
f 99/1/2 68/1/2 69/1/2 94/1/2
f 68/1/2 102/1/2 97/1/2 69/1/2
f 96/1/2 102/1/2 68/1/2 70/1/2
f 70/1/2 64/1/2 89/1/2 96/1/2
f 64/1/2 70/1/2 101/1/2 90/1/2
f 90/1/2 101/1/2 95/1/2 63/1/2
f 29/1/3 21/1/3 5/1/3 35/1/3 36/1/3 92/1/3 3/1/3
f 5/1/3 21/1/3 27/1/3 4/1/3
f 27/1/3 24/1/3 1/1/3 38/1/3 41/1/3 42/1/3 4/1/3
f 54/1/1 57/1/1 73/1/1 117/1/1 39/1/1 42/1/1
f 76/1/1 59/1/1 52/1/1 39/1/1 117/1/1 122/1/1
f 61/1/5 50/1/5 38/1/5 115/1/5 72/1/5
f 43/1/5 55/1/5 56/1/5 75/1/5 121/1/5
f 35/1/1 105/1/1 98/1/1 67/1/1 44/1/1
f 48/1/1 63/1/1 95/1/1 110/1/1 37/1/1
f 92/1/5 49/1/5 62/1/5 93/1/5 103/1/5
f 109/1/5 100/1/5 65/1/5 46/1/5 33/1/5
usemtl Material.001
f 85/1/1 124/1/1 125/1/1 86/1/1
f 86/1/4 125/1/4 117/1/4 73/1/4
f 126/1/3 87/1/3 76/1/3 122/1/3
f 126/1/1 124/1/1 85/1/1 87/1/1
f 72/1/4 115/1/4 120/1/4 81/1/4
f 120/1/5 119/1/5 80/1/5 81/1/5
f 80/1/5 119/1/5 123/1/5 82/1/5
f 121/1/3 75/1/3 82/1/3 123/1/3
f 96/1/3 100/1/3 109/1/3 114/1/3
f 113/1/4 103/1/4 93/1/4 97/1/4
f 99/1/1 94/1/1 108/1/1 107/1/1
f 94/1/4 98/1/4 105/1/4 108/1/4
f 111/1/1 101/1/1 99/1/1 107/1/1
f 95/1/3 101/1/3 111/1/3 110/1/3
f 102/1/5 112/1/5 113/1/5 97/1/5
f 102/1/5 96/1/5 114/1/5 112/1/5
